<?xml version="1.0" encoding="UTF-8" standalone="no"?>
<!DOCTYPE svg PUBLIC "-//W3C//DTD SVG 1.1//EN"
 "http://www.w3.org/Graphics/SVG/1.1/DTD/svg11.dtd">
<!-- Generated by graphviz version 12.2.1 (0)
 -->
<!-- Pages: 1 -->
<svg width="1503pt" height="1528pt"
 viewBox="0.00 0.00 1503.46 1528.00" xmlns="http://www.w3.org/2000/svg" xmlns:xlink="http://www.w3.org/1999/xlink">
<g id="graph0" class="graph" transform="scale(1 1) rotate(0) translate(4 1524)">
<polygon fill="#eaeef2" stroke="none" points="-4,4 -4,-1524 1499.46,-1524 1499.46,4 -4,4"/>
<g id="clust1" class="cluster">
<title>cluster_ctx_host</title>
<polygon fill="#d0d7de" stroke="#8c959f" stroke-dasharray="5,2" points="8,-44 8,-1181 1487.46,-1181 1487.46,-44 8,-44"/>
<text text-anchor="middle" x="747.73" y="-1163.7" font-family="Times,serif" font-size="14.00" fill="#424a53">host { host }</text>
</g>
<g id="clust2" class="cluster">
<title>cluster_ctx_user</title>
<polygon fill="#d0d7de" stroke="#8c959f" stroke-dasharray="5,2" points="18.12,-1189 18.12,-1512 1244.23,-1512 1244.23,-1189 18.12,-1189"/>
<text text-anchor="middle" x="631.18" y="-1494.7" font-family="Times,serif" font-size="14.00" fill="#424a53">user { host, user }</text>
</g>
<!-- Ivys_MacBook_Pro -->
<g id="node1" class="node">
<title>Ivys_MacBook_Pro</title>
<path fill="#218bff" stroke="#218bff" d="M355.12,-36C355.12,-36 258.12,-36 258.12,-36 252.12,-36 246.12,-30 246.12,-24 246.12,-24 246.12,-12 246.12,-12 246.12,-6 252.12,0 258.12,0 258.12,0 355.12,0 355.12,0 361.12,0 367.12,-6 367.12,-12 367.12,-12 367.12,-24 367.12,-24 367.12,-30 361.12,-36 355.12,-36"/>
<text text-anchor="middle" x="306.62" y="-12.95" font-family="Times,serif" font-size="14.00" fill="#1f2328">Ivys&#45;MacBook&#45;Pro</text>
</g>
<!-- Ivys_MacBook_Pro__to_users -->
<g id="node43" class="node">
<title>Ivys_MacBook_Pro__to_users</title>
<polygon fill="#2da44e" stroke="#2da44e" points="700.06,-36 511.24,-36 444,0 767.3,0 700.06,-36"/>
<text text-anchor="middle" x="605.65" y="-12.95" font-family="Times,serif" font-size="14.00" fill="#1f2328">Ivys&#45;MacBook&#45;Pro/to&#45;users</text>
</g>
<!-- Ivys_MacBook_Pro&#45;&gt;Ivys_MacBook_Pro__to_users -->
<g id="edge34" class="edge">
<title>Ivys_MacBook_Pro&#45;&gt;Ivys_MacBook_Pro__to_users</title>
<path fill="none" stroke="#6e7781" d="M367.38,-18C395.73,-18 430.91,-18 465.41,-18"/>
<polygon fill="#6e7781" stroke="#6e7781" points="465.07,-21.5 475.07,-18 465.07,-14.5 465.07,-21.5"/>
</g>
<!-- default_host_Ivys_MacBook_Pro -->
<g id="node2" class="node">
<title>default_host_Ivys_MacBook_Pro</title>
<polygon fill="#218bff" stroke="#218bff" points="333.62,-379 279.62,-379 279.62,-343 333.62,-343 333.62,-379"/>
<text text-anchor="middle" x="306.62" y="-355.95" font-family="Times,serif" font-size="14.00" fill="#1f2328">default</text>
</g>
<!-- den__batteries__define_user -->
<g id="node3" class="node">
<title>den__batteries__define_user</title>
<polygon fill="#218bff" stroke="#218bff" points="676.81,-172 534.49,-172 483.81,-136 727.49,-136 676.81,-172"/>
<text text-anchor="middle" x="605.65" y="-148.95" font-family="Times,serif" font-size="14.00" fill="#1f2328">batteries/define&#45;user</text>
</g>
<!-- default_host_Ivys_MacBook_Pro&#45;&gt;den__batteries__define_user -->
<g id="edge2" class="edge">
<title>default_host_Ivys_MacBook_Pro&#45;&gt;den__batteries__define_user</title>
<path fill="none" stroke="#6e7781" d="M324.92,-342.73C349.68,-317.22 397.41,-270.41 444,-238 478.27,-214.16 520.16,-192.47 552.57,-177.11"/>
<polygon fill="#6e7781" stroke="#6e7781" points="553.79,-180.4 561.36,-172.99 550.82,-174.06 553.79,-180.4"/>
</g>
<!-- den__batteries__hostname -->
<g id="node15" class="node">
<title>den__batteries__hostname</title>
<polygon fill="#218bff" stroke="#218bff" points="672.16,-283 539.14,-283 491.77,-247 719.53,-247 672.16,-283"/>
<text text-anchor="middle" x="605.65" y="-259.95" font-family="Times,serif" font-size="14.00" fill="#1f2328">batteries/hostname</text>
</g>
<!-- default_host_Ivys_MacBook_Pro&#45;&gt;den__batteries__hostname -->
<g id="edge3" class="edge">
<title>default_host_Ivys_MacBook_Pro&#45;&gt;den__batteries__hostname</title>
<path fill="none" stroke="#6e7781" d="M333.98,-352.48C379.08,-337.91 472.39,-307.75 536.74,-286.95"/>
<polygon fill="#6e7781" stroke="#6e7781" points="537.72,-290.31 546.16,-283.9 535.57,-283.65 537.72,-290.31"/>
</g>
<!-- den__batteries__inputs_ -->
<g id="node17" class="node">
<title>den__batteries__inputs_</title>
<polygon fill="#218bff" stroke="#218bff" points="662.43,-379 548.87,-379 508.42,-343 702.88,-343 662.43,-379"/>
<text text-anchor="middle" x="605.65" y="-355.95" font-family="Times,serif" font-size="14.00" fill="#1f2328">batteries/inputs&#39;</text>
</g>
<!-- default_host_Ivys_MacBook_Pro&#45;&gt;den__batteries__inputs_ -->
<g id="edge4" class="edge">
<title>default_host_Ivys_MacBook_Pro&#45;&gt;den__batteries__inputs_</title>
<path fill="none" stroke="#6e7781" d="M333.98,-361C374.55,-361 454.13,-361 516.55,-361"/>
<polygon fill="#6e7781" stroke="#6e7781" points="516.47,-364.5 526.47,-361 516.47,-357.5 516.47,-364.5"/>
</g>
<!-- insecure_predicate -->
<g id="node20" class="node">
<title>insecure_predicate</title>
<polygon fill="#4d2d00" stroke="#4d2d00" points="663.15,-567 548.15,-567 548.15,-531 663.15,-531 663.15,-567"/>
<text text-anchor="middle" x="605.65" y="-543.95" font-family="Times,serif" font-size="14.00" fill="#1f2328">insecure&#45;predicate</text>
</g>
<!-- default_host_Ivys_MacBook_Pro&#45;&gt;insecure_predicate -->
<g id="edge5" class="edge">
<title>default_host_Ivys_MacBook_Pro&#45;&gt;insecure_predicate</title>
<path fill="none" stroke="#6e7781" d="M333.89,-364.93C354.81,-368.78 384.4,-375.88 408,-388 477.4,-423.64 544.75,-486.86 579.77,-522.55"/>
<polygon fill="#6e7781" stroke="#6e7781" points="577.03,-524.75 586.5,-529.49 582.05,-519.88 577.03,-524.75"/>
</g>
<!-- den__batteries__self_ -->
<g id="node24" class="node">
<title>den__batteries__self_</title>
<polygon fill="#a475f9" stroke="#a475f9" points="654.83,-790 556.47,-790 521.45,-754 689.85,-754 654.83,-790"/>
<text text-anchor="middle" x="605.65" y="-766.95" font-family="Times,serif" font-size="14.00" fill="#1f2328">batteries/self&#39;</text>
</g>
<!-- default_host_Ivys_MacBook_Pro&#45;&gt;den__batteries__self_ -->
<g id="edge6" class="edge">
<title>default_host_Ivys_MacBook_Pro&#45;&gt;den__batteries__self_</title>
<path fill="none" stroke="#6e7781" d="M333.72,-360.75C356.6,-362 389.09,-367.64 408,-388 465.9,-450.33 407.93,-498.95 444,-576 476.47,-645.35 539.05,-711 575.78,-745.92"/>
<polygon fill="#6e7781" stroke="#6e7781" points="573.3,-748.39 582.99,-752.68 578.09,-743.29 573.3,-748.39"/>
</g>
<!-- unfree_predicate -->
<g id="node27" class="node">
<title>unfree_predicate</title>
<polygon fill="#4d2d00" stroke="#4d2d00" points="657.9,-1013 553.4,-1013 553.4,-977 657.9,-977 657.9,-1013"/>
<text text-anchor="middle" x="605.65" y="-989.95" font-family="Times,serif" font-size="14.00" fill="#1f2328">unfree&#45;predicate</text>
</g>
<!-- default_host_Ivys_MacBook_Pro&#45;&gt;unfree_predicate -->
<g id="edge7" class="edge">
<title>default_host_Ivys_MacBook_Pro&#45;&gt;unfree_predicate</title>
<path fill="none" stroke="#6e7781" d="M333.78,-360.28C357.02,-361.19 390.03,-366.57 408,-388 466.9,-458.26 409.4,-714.1 444,-799 472.87,-869.83 536.62,-934.85 574.56,-969.29"/>
<polygon fill="#6e7781" stroke="#6e7781" points="571.78,-971.5 581.57,-975.56 576.45,-966.28 571.78,-971.5"/>
</g>
<!-- den__batteries__define_user__ivypierlot_Ivys_MacBook_Pro -->
<g id="node4" class="node">
<title>den__batteries__define_user__ivypierlot_Ivys_MacBook_Pro</title>
<polygon fill="#4d2d00" stroke="#4d2d00" points="1312.16,-85 1189.58,-118.48 944.43,-118.48 821.85,-85 944.43,-51.52 1189.58,-51.52 1312.16,-85"/>
<text text-anchor="middle" x="1067.01" y="-88.2" font-family="Times,serif" font-size="14.00" fill="#1f2328">batteries/define&#45;user/ivypierlot@Ivys&#45;MacBook&#45;Pro</text>
<text text-anchor="middle" x="1067.01" y="-71.7" font-family="Times,serif" font-size="14.00" fill="#1f2328">({ host, user })</text>
</g>
<!-- den__batteries__define_user&#45;&gt;den__batteries__define_user__ivypierlot_Ivys_MacBook_Pro -->
<g id="edge8" class="edge">
<title>den__batteries__define_user&#45;&gt;den__batteries__define_user__ivypierlot_Ivys_MacBook_Pro</title>
<path fill="none" stroke="#6e7781" d="M728.84,-135.65C780.07,-127.95 840.5,-118.87 895.95,-110.54"/>
<polygon fill="#6e7781" stroke="#6e7781" points="896.47,-114.01 905.84,-109.06 895.43,-107.08 896.47,-114.01"/>
</g>
<!-- den__batteries__host__resolve_define_user__den__batteries -->
<g id="node8" class="node">
<title>den__batteries__host__resolve_define_user__den__batteries</title>
<polygon fill="#d0d7de" stroke="#8c959f" points="1221.02,-172 913,-172 803.3,-136 1330.71,-136 1221.02,-172"/>
<text text-anchor="middle" x="1067.01" y="-148.95" font-family="Times,serif" font-size="14.00" fill="#424a53">batteries/host/resolve(define&#45;user):den/batteries</text>
</g>
<!-- den__batteries__define_user&#45;&gt;den__batteries__host__resolve_define_user__den__batteries -->
<g id="edge9" class="edge">
<title>den__batteries__define_user&#45;&gt;den__batteries__host__resolve_define_user__den__batteries</title>
<path fill="none" stroke="#6e7781" d="M702.95,-154C744.65,-154 795.33,-154 845.43,-154"/>
<polygon fill="#6e7781" stroke="#6e7781" points="845.27,-157.5 855.27,-154 845.27,-150.5 845.27,-157.5"/>
</g>
<!-- host -->
<g id="node5" class="node">
<title>host</title>
<polygon fill="#218bff" stroke="#218bff" points="119.62,-379 65.62,-379 65.62,-343 119.62,-343 119.62,-379"/>
<text text-anchor="middle" x="92.62" y="-355.95" font-family="Times,serif" font-size="14.00" fill="#1f2328">host</text>
</g>
<!-- host&#45;&gt;Ivys_MacBook_Pro -->
<g id="edge19" class="edge">
<title>host&#45;&gt;Ivys_MacBook_Pro</title>
<path fill="none" stroke="#6e7781" d="M94.11,-342.78C96.61,-287.9 111.92,-122.84 205.25,-40 213.66,-32.54 224,-27.42 234.83,-23.94"/>
<polygon fill="#6e7781" stroke="#6e7781" points="235.56,-27.36 244.3,-21.37 233.73,-20.61 235.56,-27.36"/>
</g>
<!-- host&#45;&gt;default_host_Ivys_MacBook_Pro -->
<g id="edge20" class="edge">
<title>host&#45;&gt;default_host_Ivys_MacBook_Pro</title>
<path fill="none" stroke="#6e7781" d="M120.05,-361C157.28,-361 225.39,-361 267.93,-361"/>
<polygon fill="#6e7781" stroke="#6e7781" points="267.69,-364.5 277.69,-361 267.69,-357.5 267.69,-364.5"/>
</g>
<!-- host__resolve_host_ -->
<g id="node9" class="node">
<title>host__resolve_host_</title>
<polygon fill="#d0d7de" stroke="#8c959f" points="363,-433 250.25,-433 250.25,-397 363,-397 363,-433"/>
<text text-anchor="middle" x="306.62" y="-409.95" font-family="Times,serif" font-size="14.00" fill="#424a53">host/resolve(host)</text>
</g>
<!-- host&#45;&gt;host__resolve_host_ -->
<g id="edge21" class="edge">
<title>host&#45;&gt;host__resolve_host_</title>
<path fill="none" stroke="#6e7781" d="M120.05,-367.73C149.57,-375.25 198.51,-387.71 238.71,-397.96"/>
<polygon fill="#6e7781" stroke="#6e7781" points="237.78,-401.33 248.33,-400.41 239.51,-394.55 237.78,-401.33"/>
</g>
<!-- host_to_hm_users -->
<g id="node6" class="node">
<title>host_to_hm_users</title>
<polygon fill="#4d2d00" stroke="#4d2d00" points="146.75,-709 38.5,-709 38.5,-673 146.75,-673 146.75,-709"/>
<text text-anchor="middle" x="92.62" y="-685.95" font-family="Times,serif" font-size="14.00" fill="#1f2328">host&#45;to&#45;hm&#45;users</text>
</g>
<!-- host_to_users -->
<g id="node7" class="node">
<title>host_to_users</title>
<polygon fill="#218bff" stroke="#218bff" points="135.5,-901 49.75,-901 49.75,-865 135.5,-865 135.5,-901"/>
<text text-anchor="middle" x="92.62" y="-877.95" font-family="Times,serif" font-size="14.00" fill="#1f2328">host&#45;to&#45;users</text>
</g>
<!-- den__batteries__host__resolve_inputs___den__batteries -->
<g id="node10" class="node">
<title>den__batteries__host__resolve_inputs___den__batteries</title>
<polygon fill="#d0d7de" stroke="#8c959f" points="1206.64,-310 927.37,-310 827.91,-274 1306.1,-274 1206.64,-310"/>
<text text-anchor="middle" x="1067.01" y="-286.95" font-family="Times,serif" font-size="14.00" fill="#424a53">batteries/host/resolve(inputs&#39;):den/batteries</text>
</g>
<!-- host__resolve_insecure_predicate_ -->
<g id="node11" class="node">
<title>host__resolve_insecure_predicate_</title>
<polygon fill="#d0d7de" stroke="#8c959f" points="1161.63,-533 972.38,-533 972.38,-497 1161.63,-497 1161.63,-533"/>
<text text-anchor="middle" x="1067.01" y="-509.95" font-family="Times,serif" font-size="14.00" fill="#424a53">host/resolve(insecure&#45;predicate)</text>
</g>
<!-- den__batteries__host__resolve_self___den__batteries -->
<g id="node12" class="node">
<title>den__batteries__host__resolve_self___den__batteries</title>
<polygon fill="#d0d7de" stroke="#8c959f" points="1199.03,-756 934.98,-756 840.94,-720 1293.08,-720 1199.03,-756"/>
<text text-anchor="middle" x="1067.01" y="-732.95" font-family="Times,serif" font-size="14.00" fill="#424a53">batteries/host/resolve(self&#39;):den/batteries</text>
</g>
<!-- host__resolve_unfree_predicate_ -->
<g id="node13" class="node">
<title>host__resolve_unfree_predicate_</title>
<polygon fill="#d0d7de" stroke="#8c959f" points="1156.38,-979 977.63,-979 977.63,-943 1156.38,-943 1156.38,-979"/>
<text text-anchor="middle" x="1067.01" y="-955.95" font-family="Times,serif" font-size="14.00" fill="#424a53">host/resolve(unfree&#45;predicate)</text>
</g>
<!-- host__resolve_user_ -->
<g id="node14" class="node">
<title>host__resolve_user_</title>
<polygon fill="#d0d7de" stroke="#8c959f" points="1479.46,-687 1366.71,-687 1366.71,-651 1479.46,-651 1479.46,-687"/>
<text text-anchor="middle" x="1423.09" y="-663.95" font-family="Times,serif" font-size="14.00" fill="#424a53">host/resolve(user)</text>
</g>
<!-- den__batteries__hostname__os -->
<g id="node16" class="node">
<title>den__batteries__hostname__os</title>
<polygon fill="#218bff" stroke="#218bff" points="1176.21,-223 1121.61,-256.48 1012.4,-256.48 957.8,-223 1012.4,-189.52 1121.61,-189.52 1176.21,-223"/>
<text text-anchor="middle" x="1067.01" y="-226.2" font-family="Times,serif" font-size="14.00" fill="#1f2328">batteries/hostname/os</text>
<text text-anchor="middle" x="1067.01" y="-209.7" font-family="Times,serif" font-size="14.00" fill="#1f2328">({ host })</text>
</g>
<!-- den__batteries__hostname&#45;&gt;den__batteries__hostname__os -->
<g id="edge10" class="edge">
<title>den__batteries__hostname&#45;&gt;den__batteries__hostname__os</title>
<path fill="none" stroke="#6e7781" d="M708.88,-255.65C783.44,-248.84 884.22,-239.62 959.7,-232.72"/>
<polygon fill="#6e7781" stroke="#6e7781" points="959.98,-236.21 969.62,-231.81 959.34,-229.24 959.98,-236.21"/>
</g>
<!-- den__batteries__inputs_&#45;&gt;den__batteries__host__resolve_inputs___den__batteries -->
<g id="edge11" class="edge">
<title>den__batteries__inputs_&#45;&gt;den__batteries__host__resolve_inputs___den__batteries</title>
<path fill="none" stroke="#6e7781" d="M683.81,-342.5C719.93,-334.36 763.64,-325.25 803.3,-319 834.7,-314.05 868.36,-309.8 900.75,-306.23"/>
<polygon fill="#6e7781" stroke="#6e7781" points="901.08,-309.72 910.64,-305.16 900.32,-302.76 901.08,-309.72"/>
</g>
<!-- den__batteries__inputs___os -->
<g id="node18" class="node">
<title>den__batteries__inputs___os</title>
<polygon fill="#218bff" stroke="#218bff" points="1162.13,-361 1114.57,-394.48 1019.45,-394.48 971.88,-361 1019.45,-327.52 1114.57,-327.52 1162.13,-361"/>
<text text-anchor="middle" x="1067.01" y="-364.2" font-family="Times,serif" font-size="14.00" fill="#1f2328">batteries/inputs&#39;/os</text>
<text text-anchor="middle" x="1067.01" y="-347.7" font-family="Times,serif" font-size="14.00" fill="#1f2328">({ host })</text>
</g>
<!-- den__batteries__inputs_&#45;&gt;den__batteries__inputs___os -->
<g id="edge12" class="edge">
<title>den__batteries__inputs_&#45;&gt;den__batteries__inputs___os</title>
<path fill="none" stroke="#6e7781" d="M683.28,-361C758.93,-361 875.24,-361 959.79,-361"/>
<polygon fill="#6e7781" stroke="#6e7781" points="959.73,-364.5 969.73,-361 959.73,-357.5 959.73,-364.5"/>
</g>
<!-- den__batteries__inputs___user -->
<g id="node19" class="node">
<title>den__batteries__inputs___user</title>
<polygon fill="#a475f9" stroke="#a475f9" points="1170.7,-446 1118.85,-479.48 1015.16,-479.48 963.31,-446 1015.16,-412.52 1118.85,-412.52 1170.7,-446"/>
<text text-anchor="middle" x="1067.01" y="-449.2" font-family="Times,serif" font-size="14.00" fill="#1f2328">batteries/inputs&#39;/user</text>
<text text-anchor="middle" x="1067.01" y="-432.7" font-family="Times,serif" font-size="14.00" fill="#1f2328">({ host, user })</text>
</g>
<!-- den__batteries__inputs_&#45;&gt;den__batteries__inputs___user -->
<g id="edge13" class="edge">
<title>den__batteries__inputs_&#45;&gt;den__batteries__inputs___user</title>
<path fill="none" stroke="#6e7781" d="M667.62,-374.81C706.38,-383.4 757.67,-394.4 803.3,-403 858.72,-413.45 920.99,-423.7 970.99,-431.58"/>
<polygon fill="#6e7781" stroke="#6e7781" points="970.2,-435 980.62,-433.09 971.29,-428.08 970.2,-435"/>
</g>
<!-- den__batteries__inputs___user&#45;&gt;host__resolve_user_ -->
<g id="edge14" class="edge">
<title>den__batteries__inputs___user&#45;&gt;host__resolve_user_</title>
<path fill="none" stroke="#6e7781" d="M1163.56,-440.84C1217.3,-442.63 1282.97,-453.13 1330.71,-488 1381.42,-525.04 1405.83,-598.35 1415.97,-639.39"/>
<polygon fill="#6e7781" stroke="#6e7781" points="1412.54,-640.12 1418.22,-649.07 1419.36,-638.53 1412.54,-640.12"/>
</g>
<!-- insecure_predicate&#45;&gt;host__resolve_insecure_predicate_ -->
<g id="edge22" class="edge">
<title>insecure_predicate&#45;&gt;host__resolve_insecure_predicate_</title>
<path fill="none" stroke="#6e7781" d="M663.44,-544.8C737.41,-539.32 868.16,-529.64 960.55,-522.81"/>
<polygon fill="#6e7781" stroke="#6e7781" points="960.68,-526.31 970.4,-522.08 960.16,-519.32 960.68,-526.31"/>
</g>
<!-- insecure_predicate__os -->
<g id="node21" class="node">
<title>insecure_predicate__os</title>
<polygon fill="#218bff" stroke="#218bff" points="1173.76,-584 1120.39,-617.48 1013.63,-617.48 960.25,-584 1013.63,-550.52 1120.39,-550.52 1173.76,-584"/>
<text text-anchor="middle" x="1067.01" y="-587.2" font-family="Times,serif" font-size="14.00" fill="#1f2328">insecure&#45;predicate/os</text>
<text text-anchor="middle" x="1067.01" y="-570.7" font-family="Times,serif" font-size="14.00" fill="#1f2328">({ host })</text>
</g>
<!-- insecure_predicate&#45;&gt;insecure_predicate__os -->
<g id="edge23" class="edge">
<title>insecure_predicate&#45;&gt;insecure_predicate__os</title>
<path fill="none" stroke="#6e7781" d="M663.44,-553.33C737.17,-558.95 867.34,-568.86 959.69,-575.9"/>
<polygon fill="#6e7781" stroke="#6e7781" points="959.29,-579.38 969.53,-576.65 959.82,-572.4 959.29,-579.38"/>
</g>
<!-- insecure_predicate__user -->
<g id="node22" class="node">
<title>insecure_predicate__user</title>
<polygon fill="#4d2d00" stroke="#4d2d00" points="1182.34,-669 1124.67,-702.48 1009.34,-702.48 951.68,-669 1009.34,-635.52 1124.67,-635.52 1182.34,-669"/>
<text text-anchor="middle" x="1067.01" y="-672.2" font-family="Times,serif" font-size="14.00" fill="#1f2328">insecure&#45;predicate/user</text>
<text text-anchor="middle" x="1067.01" y="-655.7" font-family="Times,serif" font-size="14.00" fill="#1f2328">({ host, user })</text>
</g>
<!-- insecure_predicate&#45;&gt;insecure_predicate__user -->
<g id="edge24" class="edge">
<title>insecure_predicate&#45;&gt;insecure_predicate__user</title>
<path fill="none" stroke="#6e7781" d="M646.48,-567.48C685.62,-584.94 747.43,-610.68 803.3,-626 853.43,-639.75 910.23,-649.72 958.15,-656.58"/>
<polygon fill="#6e7781" stroke="#6e7781" points="957.61,-660.03 968,-657.95 958.58,-653.1 957.61,-660.03"/>
</g>
<!-- os_to_host_host_Ivys_MacBook_Pro -->
<g id="node23" class="node">
<title>os_to_host_host_Ivys_MacBook_Pro</title>
<polygon fill="#4d2d00" stroke="#4d2d00" points="127.62,-1024 57.62,-1024 57.62,-988 127.62,-988 127.62,-1024"/>
<text text-anchor="middle" x="92.62" y="-1000.95" font-family="Times,serif" font-size="14.00" fill="#1f2328">os&#45;to&#45;host</text>
</g>
<!-- den__batteries__self_&#45;&gt;den__batteries__host__resolve_self___den__batteries -->
<g id="edge15" class="edge">
<title>den__batteries__self_&#45;&gt;den__batteries__host__resolve_self___den__batteries</title>
<path fill="none" stroke="#6e7781" d="M678.17,-766.71C738.5,-762.24 827.12,-755.68 904.43,-749.96"/>
<polygon fill="#6e7781" stroke="#6e7781" points="904.53,-753.46 914.24,-749.23 904.01,-746.48 904.53,-753.46"/>
</g>
<!-- den__batteries__self___os -->
<g id="node25" class="node">
<title>den__batteries__self___os</title>
<polygon fill="#4d2d00" stroke="#4d2d00" points="1151.11,-807 1109.06,-840.48 1024.96,-840.48 982.91,-807 1024.96,-773.52 1109.06,-773.52 1151.11,-807"/>
<text text-anchor="middle" x="1067.01" y="-810.2" font-family="Times,serif" font-size="14.00" fill="#1f2328">batteries/self&#39;/os</text>
<text text-anchor="middle" x="1067.01" y="-793.7" font-family="Times,serif" font-size="14.00" fill="#1f2328">({ host })</text>
</g>
<!-- den__batteries__self_&#45;&gt;den__batteries__self___os -->
<g id="edge16" class="edge">
<title>den__batteries__self_&#45;&gt;den__batteries__self___os</title>
<path fill="none" stroke="#6e7781" d="M668.12,-776.68C747.84,-782.76 887.38,-793.39 978.23,-800.31"/>
<polygon fill="#6e7781" stroke="#6e7781" points="977.86,-803.79 988.1,-801.06 978.4,-796.81 977.86,-803.79"/>
</g>
<!-- den__batteries__self___user -->
<g id="node26" class="node">
<title>den__batteries__self___user</title>
<polygon fill="#218bff" stroke="#218bff" points="1159.68,-892 1113.34,-925.48 1020.67,-925.48 974.33,-892 1020.67,-858.52 1113.34,-858.52 1159.68,-892"/>
<text text-anchor="middle" x="1067.01" y="-895.2" font-family="Times,serif" font-size="14.00" fill="#1f2328">batteries/self&#39;/user</text>
<text text-anchor="middle" x="1067.01" y="-878.7" font-family="Times,serif" font-size="14.00" fill="#1f2328">({ host, user })</text>
</g>
<!-- den__batteries__self_&#45;&gt;den__batteries__self___user -->
<g id="edge17" class="edge">
<title>den__batteries__self_&#45;&gt;den__batteries__self___user</title>
<path fill="none" stroke="#6e7781" d="M646.48,-790.48C685.62,-807.94 747.43,-833.68 803.3,-849 859.24,-864.34 923.47,-874.98 974.42,-881.83"/>
<polygon fill="#6e7781" stroke="#6e7781" points="973.87,-885.29 984.24,-883.13 974.79,-878.35 973.87,-885.29"/>
</g>
<!-- den__batteries__self___user&#45;&gt;host__resolve_user_ -->
<g id="edge18" class="edge">
<title>den__batteries__self___user&#45;&gt;host__resolve_user_</title>
<path fill="none" stroke="#6e7781" d="M1153.62,-896.98C1209.01,-895.93 1279.99,-886.11 1330.71,-849 1381.17,-812.08 1405.68,-739.21 1415.9,-698.42"/>
<polygon fill="#6e7781" stroke="#6e7781" points="1419.27,-699.35 1418.17,-688.82 1412.46,-697.74 1419.27,-699.35"/>
</g>
<!-- unfree_predicate&#45;&gt;host__resolve_unfree_predicate_ -->
<g id="edge26" class="edge">
<title>unfree_predicate&#45;&gt;host__resolve_unfree_predicate_</title>
<path fill="none" stroke="#6e7781" d="M658.01,-991.2C732.25,-985.7 871.03,-975.43 965.93,-968.41"/>
<polygon fill="#6e7781" stroke="#6e7781" points="966.06,-971.91 975.77,-967.68 965.54,-964.93 966.06,-971.91"/>
</g>
<!-- unfree_predicate__os -->
<g id="node28" class="node">
<title>unfree_predicate__os</title>
<polygon fill="#a475f9" stroke="#a475f9" points="1165.19,-1030 1116.1,-1063.48 1017.91,-1063.48 968.82,-1030 1017.91,-996.52 1116.1,-996.52 1165.19,-1030"/>
<text text-anchor="middle" x="1067.01" y="-1033.2" font-family="Times,serif" font-size="14.00" fill="#1f2328">unfree&#45;predicate/os</text>
<text text-anchor="middle" x="1067.01" y="-1016.7" font-family="Times,serif" font-size="14.00" fill="#1f2328">({ host })</text>
</g>
<!-- unfree_predicate&#45;&gt;unfree_predicate__os -->
<g id="edge27" class="edge">
<title>unfree_predicate&#45;&gt;unfree_predicate__os</title>
<path fill="none" stroke="#6e7781" d="M658.01,-998.91C732.47,-1004.59 871.88,-1015.21 966.8,-1022.44"/>
<polygon fill="#6e7781" stroke="#6e7781" points="966.4,-1025.92 976.63,-1023.19 966.93,-1018.94 966.4,-1025.92"/>
</g>
<!-- unfree_predicate__user -->
<g id="node29" class="node">
<title>unfree_predicate__user</title>
<polygon fill="#a475f9" stroke="#a475f9" points="1173.76,-1115 1120.39,-1148.48 1013.63,-1148.48 960.25,-1115 1013.63,-1081.52 1120.39,-1081.52 1173.76,-1115"/>
<text text-anchor="middle" x="1067.01" y="-1118.2" font-family="Times,serif" font-size="14.00" fill="#1f2328">unfree&#45;predicate/user</text>
<text text-anchor="middle" x="1067.01" y="-1101.7" font-family="Times,serif" font-size="14.00" fill="#1f2328">({ host, user })</text>
</g>
<!-- unfree_predicate&#45;&gt;unfree_predicate__user -->
<g id="edge28" class="edge">
<title>unfree_predicate&#45;&gt;unfree_predicate__user</title>
<path fill="none" stroke="#6e7781" d="M646.48,-1013.48C685.62,-1030.94 747.43,-1056.68 803.3,-1072 855.61,-1086.35 915.16,-1096.58 964.33,-1103.45"/>
<polygon fill="#6e7781" stroke="#6e7781" points="963.74,-1106.9 974.13,-1104.79 964.69,-1099.97 963.74,-1106.9"/>
</g>
<!-- vpn_clients_to_vpn_server -->
<g id="node30" class="node">
<title>vpn_clients_to_vpn_server</title>
<polygon fill="#a475f9" stroke="#a475f9" points="169.25,-1113 16,-1113 16,-1077 169.25,-1077 169.25,-1113"/>
<text text-anchor="middle" x="92.62" y="-1089.95" font-family="Times,serif" font-size="14.00" fill="#1f2328">vpn&#45;clients&#45;to&#45;vpn&#45;server</text>
</g>
<!-- _policy_agenix_rekey__to_users__0_ -->
<g id="node31" class="node">
<title>_policy_agenix_rekey__to_users__0_</title>
<polygon fill="#4d2d00" stroke="#4d2d00" points="408,-1233 205.25,-1233 205.25,-1197 408,-1197 408,-1233"/>
<text text-anchor="middle" x="306.62" y="-1209.95" font-family="Times,serif" font-size="14.00" fill="#1f2328">&lt;policy:agenix&#45;rekey/to&#45;users&gt;[0]</text>
</g>
<!-- _policy_hm_user_detect__1_ -->
<g id="node32" class="node">
<title>_policy_hm_user_detect__1_</title>
<polygon fill="#4d2d00" stroke="#4d2d00" points="390.38,-1287 222.88,-1287 222.88,-1251 390.38,-1251 390.38,-1287"/>
<text text-anchor="middle" x="306.62" y="-1263.95" font-family="Times,serif" font-size="14.00" fill="#1f2328">&lt;policy:hm&#45;user&#45;detect&gt;[1]</text>
</g>
<!-- agenix_rekey -->
<g id="node33" class="node">
<title>agenix_rekey</title>
<polygon fill="#e16f24" stroke="#e16f24" points="648.9,-1410 562.4,-1410 562.4,-1374 648.9,-1374 648.9,-1410"/>
<text text-anchor="middle" x="605.65" y="-1386.95" font-family="Times,serif" font-size="14.00" fill="#1f2328">agenix&#45;rekey</text>
</g>
<!-- user__resolve_agenix_rekey_ -->
<g id="node41" class="node">
<title>user__resolve_agenix_rekey_</title>
<polygon fill="#d0d7de" stroke="#8c959f" points="1236.23,-1392 1151.62,-1425.48 982.4,-1425.48 897.79,-1392 982.4,-1358.52 1151.62,-1358.52 1236.23,-1392"/>
<text text-anchor="middle" x="1067.01" y="-1395.2" font-family="Times,serif" font-size="14.00" fill="#424a53">user/resolve(agenix&#45;rekey)</text>
<text text-anchor="middle" x="1067.01" y="-1378.7" font-family="Times,serif" font-size="14.00" fill="#424a53">({ aspect&#45;chain, class, host, user })</text>
</g>
<!-- agenix_rekey&#45;&gt;user__resolve_agenix_rekey_ -->
<g id="edge1" class="edge">
<title>agenix_rekey&#45;&gt;user__resolve_agenix_rekey_</title>
<path fill="none" stroke="#6e7781" d="M649.04,-1392C702.77,-1392 798.8,-1392 885.17,-1392"/>
<polygon fill="#6e7781" stroke="#6e7781" points="884.95,-1395.5 894.95,-1392 884.95,-1388.5 884.95,-1395.5"/>
</g>
<!-- agenix_rekey__to_users -->
<g id="node34" class="node">
<title>agenix_rekey__to_users</title>
<polygon fill="#e16f24" stroke="#e16f24" points="159.12,-1233 26.12,-1233 26.12,-1197 159.12,-1197 159.12,-1233"/>
<text text-anchor="middle" x="92.62" y="-1209.95" font-family="Times,serif" font-size="14.00" fill="#1f2328">agenix&#45;rekey/to&#45;users</text>
</g>
<!-- default_user_ivypierlot -->
<g id="node35" class="node">
<title>default_user_ivypierlot</title>
<polygon fill="#4d2d00" stroke="#4d2d00" points="333.62,-1341 279.62,-1341 279.62,-1305 333.62,-1305 333.62,-1341"/>
<text text-anchor="middle" x="306.62" y="-1317.95" font-family="Times,serif" font-size="14.00" fill="#1f2328">default</text>
</g>
<!-- hm_user_detect -->
<g id="node36" class="node">
<title>hm_user_detect</title>
<polygon fill="#fa4549" stroke="#fa4549" points="141.5,-1287 43.75,-1287 43.75,-1251 141.5,-1251 141.5,-1287"/>
<text text-anchor="middle" x="92.62" y="-1263.95" font-family="Times,serif" font-size="14.00" fill="#1f2328">hm&#45;user&#45;detect</text>
</g>
<!-- ivypierlot -->
<g id="node37" class="node">
<title>ivypierlot</title>
<polygon fill="#4d2d00" stroke="#4d2d00" points="362.56,-1392 334.59,-1425.48 278.66,-1425.48 250.69,-1392 278.66,-1358.52 334.59,-1358.52 362.56,-1392"/>
<text text-anchor="middle" x="306.62" y="-1395.2" font-family="Times,serif" font-size="14.00" fill="#1f2328">ivypierlot</text>
<text text-anchor="middle" x="306.62" y="-1378.7" font-family="Times,serif" font-size="14.00" fill="#1f2328">({ user })</text>
</g>
<!-- ivypierlot&#45;&gt;agenix_rekey -->
<g id="edge25" class="edge">
<title>ivypierlot&#45;&gt;agenix_rekey</title>
<path fill="none" stroke="#6e7781" d="M363.14,-1392C416.8,-1392 497.55,-1392 550.68,-1392"/>
<polygon fill="#6e7781" stroke="#6e7781" points="550.39,-1395.5 560.39,-1392 550.39,-1388.5 550.39,-1395.5"/>
</g>
<!-- os_to_host_user_ivypierlot -->
<g id="node38" class="node">
<title>os_to_host_user_ivypierlot</title>
<polygon fill="#e16f24" stroke="#e16f24" points="127.62,-1341 57.62,-1341 57.62,-1305 127.62,-1305 127.62,-1341"/>
<text text-anchor="middle" x="92.62" y="-1317.95" font-family="Times,serif" font-size="14.00" fill="#1f2328">os&#45;to&#45;host</text>
</g>
<!-- user -->
<g id="node39" class="node">
<title>user</title>
<polygon fill="#4d2d00" stroke="#4d2d00" points="119.62,-1395 65.62,-1395 65.62,-1359 119.62,-1359 119.62,-1395"/>
<text text-anchor="middle" x="92.62" y="-1371.95" font-family="Times,serif" font-size="14.00" fill="#1f2328">user</text>
</g>
<!-- user&#45;&gt;_policy_agenix_rekey__to_users__0_ -->
<g id="edge29" class="edge">
<title>user&#45;&gt;_policy_agenix_rekey__to_users__0_</title>
<path fill="none" stroke="#6e7781" d="M119.88,-1373.54C136.07,-1370.12 156.18,-1363.35 169.25,-1350 204.65,-1313.85 168.43,-1276.71 205.25,-1242 205.89,-1241.4 206.54,-1240.81 207.21,-1240.23"/>
<polygon fill="#6e7781" stroke="#6e7781" points="209.23,-1243.08 215.2,-1234.33 205.07,-1237.45 209.23,-1243.08"/>
</g>
<!-- user&#45;&gt;_policy_hm_user_detect__1_ -->
<g id="edge30" class="edge">
<title>user&#45;&gt;_policy_hm_user_detect__1_</title>
<path fill="none" stroke="#6e7781" d="M119.81,-1372.01C135.39,-1368.05 154.85,-1361.24 169.25,-1350 191.99,-1332.25 181.82,-1312.82 205.25,-1296 207.59,-1294.32 210.03,-1292.74 212.55,-1291.26"/>
<polygon fill="#6e7781" stroke="#6e7781" points="213.99,-1294.46 221.25,-1286.74 210.76,-1288.25 213.99,-1294.46"/>
</g>
<!-- user&#45;&gt;default_user_ivypierlot -->
<g id="edge31" class="edge">
<title>user&#45;&gt;default_user_ivypierlot</title>
<path fill="none" stroke="#6e7781" d="M120.05,-1370.27C157.36,-1360.77 225.68,-1343.36 268.2,-1332.53"/>
<polygon fill="#6e7781" stroke="#6e7781" points="268.91,-1335.96 277.74,-1330.1 267.18,-1329.18 268.91,-1335.96"/>
</g>
<!-- user&#45;&gt;ivypierlot -->
<g id="edge32" class="edge">
<title>user&#45;&gt;ivypierlot</title>
<path fill="none" stroke="#6e7781" d="M120.05,-1378.87C150.32,-1381.01 200.99,-1384.6 241.75,-1387.48"/>
<polygon fill="#6e7781" stroke="#6e7781" points="241.49,-1390.97 251.72,-1388.19 241.99,-1383.99 241.49,-1390.97"/>
</g>
<!-- user__resolve_user_ -->
<g id="node42" class="node">
<title>user__resolve_user_</title>
<polygon fill="#d0d7de" stroke="#8c959f" points="363,-1479 250.25,-1479 250.25,-1443 363,-1443 363,-1479"/>
<text text-anchor="middle" x="306.62" y="-1455.95" font-family="Times,serif" font-size="14.00" fill="#424a53">user/resolve(user)</text>
</g>
<!-- user&#45;&gt;user__resolve_user_ -->
<g id="edge33" class="edge">
<title>user&#45;&gt;user__resolve_user_</title>
<path fill="none" stroke="#6e7781" d="M119.97,-1392.45C142.14,-1404.95 174.99,-1422.35 205.25,-1434 216.03,-1438.15 227.7,-1441.91 239.14,-1445.23"/>
<polygon fill="#6e7781" stroke="#6e7781" points="237.97,-1448.53 248.54,-1447.85 239.85,-1441.79 237.97,-1448.53"/>
</g>
<!-- user_to_host -->
<g id="node40" class="node">
<title>user_to_host</title>
<polygon fill="#4d2d00" stroke="#4d2d00" points="132.88,-1464 52.38,-1464 52.38,-1428 132.88,-1428 132.88,-1464"/>
<text text-anchor="middle" x="92.62" y="-1440.95" font-family="Times,serif" font-size="14.00" fill="#1f2328">user&#45;to&#45;host</text>
</g>
</g>
</svg>
